<svg version="1.1" id="Layer_1" xmlns="http://www.w3.org/2000/svg" x="0" y="0" viewBox="0 0 1000 208.4" style="enable-background:new 0 0 1000 208.4" xml:space="preserve"><style>.st0{fill:none}</style><path class="st0" d="M998.8 47.8H359.5v129.5H1000V47.8h-1.2zm-26.3 113.7h11.2v1.7h-4.6V176h-1.9v-12.8h-4.6l-.1-1.7z"/><path d="M977.1 175.9h2v-12.8h4.6v-1.6h-11.2v1.6h4.6z"/><path class="st0" d="M998.8 47.8H359.5v129.5H1000V47.8h-1.2zm-13.3 113.7h2.7l4.2 12.3 4-12.3h2.4v14.4h-1.6v-11.7l-3.9 11.7h-1.9l-3.9-11.7v11.7h-1.9l-.1-14.4z"/><path d="m987.5 164.2 3.8 11.7h2l3.9-11.7v11.7h1.6v-14.4h-2.4l-4 12.3-4.2-12.3h-2.7v14.4h2zM666.8 141.4V81.8c0-12.2 5.7-20.9 17.8-20.9h74.7c.5 0 .9-.5.9-.9V48.1c0-.1 0-.2-.1-.3h-91.3c-19.8 2.5-29.5 16.3-29.5 33.9v59.6c0 12.2-5.8 20.9-17.8 20.9h-78.8c-.4 0-.9.3-.9.9V175c0 .5.3.9.7 1H632c23.3-.6 34.8-15.5 34.8-34.6zM360.1 176h26.2c.4-.1.7-.5.7-1v-38c0-12.2 6.9-20.6 16.9-20.6h108c24.3 0 36.1-15 36.1-34.7 0-17.6-9.7-31.4-29.5-33.9H359.6c0 .1-.1.2-.1.3V60c0 .6.3.9.9.9h142.3c12.1 0 17.8 8.7 17.8 20.9s-5.7 20.9-17.8 20.9H390.1c-17.5 0-30.6 14.9-30.6 34.4v38c0 .4.2.8.6.9z"/><g><path class="st0" d="M782.9 148.4h120.2c.4 0 .9-.5.9-.9v-74c0-1.7-1.5-1.8-2.2-1.2l-119.6 74c-.8.5-1.1.9-.9 1.5.1.3.5.6 1.6.6z"/><path d="M759.7 162.2h143.4c.4 0 .7.3.7.6V175c0 .6.5.9.9.9h25.8c.5 0 .9-.3.9-.9v-11.9c0-.5.5-.9.9-.9H958c.6 0 .9-.5.9-.9v-12c0-.5-.3-.9-.9-.9h-25.7c-.4 0-.9-.5-.9-.9V60.9c0-7.1-2.6-11.6-7-13.1h-7.5c-2.3.6-4.9 1.7-7.6 3.3l-154.4 95.3c-6 3.8-8.1 8-6.6 11.1 1.3 2.8 4.7 4.7 11.4 4.7zm22.4-15.9 119.6-74c.8-.6 2.2-.4 2.2 1.2v74c0 .5-.5.9-.9.9H782.9c-1 0-1.5-.3-1.6-.6-.2-.6.1-1 .8-1.5z"/></g><g><path d="M100.2 0c11.6 2.2 23.1 5.3 34.5 8.5 6.5 1.9 13 3.9 19.5 5.9 10.1 3.2 20.2 6.9 29.4 12.3 4.1 2.5 8.1 5.3 11.4 8.8 3.7 3.6 6.7 7.8 8.9 12.4 4 8.4 5.4 17.7 5.8 26.9.2 6 .2 12-.9 18-.9 5.1-2.6 10.2-5.3 14.7-2.4 3.9-5.8 7.4-9.9 9.6-3.9 2.1-8.4 3.1-12.9 3-6.8.1-13.3-2.1-19.4-4.9-.1-20.2 0-40.4 0-60.6 0-3.7.2-7.3-.5-10.9-.5-2.8-1.7-5.6-3.8-7.5-1.5-1.3-3.3-2.1-5.2-2.4-1.9-.4-4 .4-5.1 2-2 2.5-2.5 5.7-2.6 8.8v162.1c-14.5-4.6-29.1-9.2-43.6-13.8-.4-64.3-.3-128.6-.3-192.9zM34.8 136.8c19-6.7 37.9-13.5 56.9-20.2v22.3c0 1 .1 2-.1 3-15 5.3-29.9 10.7-44.9 16.1-2.1.8-4.2 1.7-5.8 3.3-.7.7-1.4 1.8-.9 2.9.5 1.3 1.8 1.9 3 2.5 3.3 1.3 6.9 1.5 10.4 1.7 3.9-.1 7.8-.4 11.6-1.2 2.6-.5 5.1-1.4 7.5-2.3l19.2-6.9v18.9c0 1.3.1 2.5-.1 3.8-7.9 1.4-15.8 2.4-23.8 2.5-16.1.4-32.3-2.1-47.6-7.2-5-1.5-10-3.4-14.2-6.6-2.3-1.8-4.4-4-5.4-6.8-.9-2.3-.8-5 .3-7.3s2.9-4 4.9-5.4c4.7-3.2 9.9-5.7 15.1-7.9 4.6-2 9.3-3.5 13.9-5.2z"/><path d="M187.3 128.3c4.3-.5 8.6-.6 12.9-.8 14.2.1 28.5 1.8 42.1 6.1 2.7.8 5.3 1.9 7.9 2.7 4.7 1.7 9.5 3.8 13.3 7.2 2.3 2.1 4.2 4.9 4.3 8.1.1 2.6-1 5.1-2.7 7-3.2 3.6-7.5 6.1-11.7 8.2-4.5 2.3-9.4 3.8-14.2 5.6-29.1 10.4-58.1 20.9-87.2 31.3v-24.4c0-.3-.1-.9.3-1 22.1-7.9 44.2-15.8 66.3-23.6 3-1.1 6.2-1.9 8.7-4 1-.8 2.1-2.1 1.5-3.5-.5-1.2-1.8-1.9-3-2.4-3.3-1.3-6.9-1.6-10.4-1.7-5.5 0-11.1.7-16.3 2.5-15.7 5.5-31.5 11.1-47.2 16.6V136c11.5-3.9 23.4-6.3 35.4-7.7zM251.9 188.5c3.4-.4 7 1.1 9.1 3.9 2.2 2.9 2.7 7 1.1 10.3-1.6 3.4-5.3 5.8-9.1 5.7-3.5.1-6.9-2-8.6-5-1.6-2.7-1.7-6.1-.5-8.9 1.3-3.2 4.5-5.6 8-6zm-.7 1.8c-1.9.4-3.7 1.6-4.8 3.2-1.4 1.9-1.9 4.4-1.4 6.7.4 2.1 1.8 4 3.6 5.2 2.8 1.8 6.7 1.7 9.4-.3 2.8-1.9 4.1-5.7 3.1-8.9-.6-2.2-2.1-4-4.1-5.1-1.8-1-3.9-1.2-5.8-.8z"/><path d="M248.8 192.7h5.4c1 0 2.1.3 2.8 1 .7.8.8 2 .6 3-.1.7-.7 1.1-1.1 1.5.4.3.9.6.9 1.2.2 1 0 2.1.3 3.1.2.4.4.7.4 1.1h-2.2c-.5-1.2-.1-2.5-.4-3.7-.1-.5-.6-.8-1.1-.8-1.2-.1-2.4 0-3.6 0v4.5h-1.9c-.1-3.5-.1-7.2-.1-10.9zm1.9 1.7v3.1h3.3c.5 0 1.2-.1 1.5-.6.4-.6.4-1.4 0-2-.3-.5-.9-.5-1.4-.5h-3.4z"/></g></svg>