<svg xmlns="http://www.w3.org/2000/svg" viewBox="0 0 2000 435.1" style="enable-background:new 0 0 2000 435.1" xml:space="preserve"><path d="M41.9 369.3c-44-12.6-51.4-38.5-31.3-53.5 18.6-13.9 50.2-24.2 50.2-24.2L191.3 245v53.1l-93.9 33.8c-16.6 6.1-19.2 14.5-5.7 18.9s37.9 3.2 54.5-2.8l45-16.4v47.5c-2.8.5-6.1 1-9 1.5-46.9 7.6-95.1 3.8-140.3-11.3zm275.4 5.6 146.5-52.3c16.6-6.1 19.2-14.4 5.7-18.8s-37.9-3.2-54.5 2.8L317.3 341v-54.9l5.7-1.9c22.1-7.1 44.8-12 67.8-14.4 39.7-4.4 88.2.6 126.3 15.1 43 13.6 47.8 33.6 36.9 47.4S516.4 356 516.4 356l-199 71.6-.1-52.7zm17.1-340.2c77.1 26.6 103.3 59.8 103.3 134.4 0 72.8-44.7 100.3-101.4 72.8V106.2c0-15.9-2.9-30.6-17.8-34.7-11.4-3.7-18.4 7-18.4 22.9V434L209 404.8V0c38.7 7.2 95.1 24.2 125.4 34.7zm195.8 371.6c.1 1.1-.3 2.2-1.1 2.9-1 .6-2.2.9-3.3.8h-7v-7.2h7.4c.8 0 1.7.1 2.4.4 1.1.6 1.7 1.9 1.6 3.1zm5 16.5c-.4-.2-.7-.7-.7-1.1-.1-.7-.2-1.3-.2-2l-.1-3.3c.1-1.2-.3-2.4-.9-3.4-.4-.5-.9-.9-1.5-1.3.8-.5 1.4-1.1 1.9-1.9.7-1.2 1-2.5 1-3.9.2-2.7-1.3-5.2-3.7-6.3-1.5-.6-3.1-.9-4.8-.9h-11.7v25.6h4.4v-10.5h6.9c.9-.1 1.8.1 2.7.4 1 .6 1.5 1.6 1.4 2.7l.2 4c0 .7.1 1.4.2 2 .1.3.2.7.3 1l.2.3h4.9v-1.5l-.5.1zm-30-10.7c0-5.1 2-9.9 5.5-13.5 7.2-7.4 19-7.5 26.3-.3l.3.3c7.4 7.6 7.3 19.7-.2 27.2-3.5 3.4-8.2 5.4-13.1 5.5-5 0-9.8-2-13.3-5.6-3.6-3.7-5.5-8.5-5.5-13.6zm18.8 23c6 0 11.8-2.4 16-6.8 8.9-9 8.9-23.5 0-32.5-4.2-4.3-10-6.7-16-6.7-12.7.2-22.9 10.8-22.6 23.5.1 5.9 2.5 11.5 6.6 15.8 4.2 4.3 10 6.7 16 6.7z" style="fill-rule:evenodd;clip-rule:evenodd"/><path d="M1958.8 348h-3.9v-26.5h-8.9v-3.7h21.7v3.7h-8.9V348zm26.9-7.1 8.3-23.2h6.1V348h-4v-25.3l-9.2 25.3h-2.5l-9.1-25.3V348h-3.8v-30.3h6.1l8.1 23.2zm-78.5-254.2h-371.3v100.7s-1.1 38.9 46.9 38.9h227c8.9-.1 17.7 1.7 25.9 5.3 12.7 5.7 26.9 17.2 26.9 40.4 0 20.8-10.1 32.7-20.1 39.3-8.3 5.3-17.9 8.1-27.8 8.1h-278.9v28.3h311s70.6-2.9 70.6-75.5c0-36.9-21.6-55.2-40.9-64.2-12.5-5.8-26.2-8.7-40-8.7h-225c-3.7 0-7.5-.8-10.8-2.6-4.8-2.6-10.1-7.8-10.1-17.9v-64.1h316.5v-28zm-838.8 232.4v28.3H1226c18.8.2 37.1-6.4 51.5-18.6 15-12.7 23.4-31.5 23-51.2V157.4c-.2-13.3 5.8-26 16.1-34.3 7.3-5.7 16.2-8.7 25.4-8.6h137.4V86.7h-163.7s-70.6 1.1-70.6 75.8v112.2c.1 9.2-2.4 18.2-7.1 26.1-7.1 11.8-20 18.9-33.7 18.4l-135.9-.1zM704.5 86.7v27.9h280.9c7.8-.1 15.5 1.6 22.6 4.9 11.1 5.2 23.7 16 23.7 37.8 0 21.2-12.5 31.8-23.7 37-7.2 3.3-15.1 5-23 4.9H776.7c-12.3-.1-24.5 2.6-35.6 8.1-17.3 8.7-36.6 29.2-36.6 63V347h54.1v-76.3c0-5 .9-9.9 2.6-14.5 4.5-11.4 15.7-29.8 42.1-29.8h210.1c7.1 0 14.1-.9 20.9-2.8 19.3-5.5 51.5-21.4 51.5-66.2 0-69.7-69.4-70.5-69.4-70.5H704.5z"/></svg>