<?xml version="1.0" standalone="no"?>
<!DOCTYPE svg PUBLIC "-//W3C//DTD SVG 20010904//EN"
 "http://www.w3.org/TR/2001/REC-SVG-20010904/DTD/svg10.dtd">
<svg version="1.0" xmlns="http://www.w3.org/2000/svg"
 width="1002.000000pt" height="1326.000000pt" viewBox="0 0 1002.000000 1326.000000"
 preserveAspectRatio="xMidYMid meet">

<g transform="translate(0.000000,1326.000000) scale(0.100000,-0.100000)"
fill="#000000" stroke="none">
<path d="M5235 13116 c-18 -13 -19 -17 -6 -53 8 -21 16 -53 18 -72 2 -19 12
-45 23 -58 l19 -24 7 35 c3 20 4 43 0 51 -4 11 5 22 29 36 41 24 42 31 14 70
-23 33 -71 40 -104 15z"/>
<path d="M5418 13112 c-6 -25 19 -58 52 -72 17 -7 28 -16 25 -20 -3 -5 8 -18
24 -29 24 -17 29 -27 26 -51 -5 -40 -12 -50 -35 -50 -33 0 -50 -12 -50 -35 0
-13 5 -27 10 -30 6 -3 10 -15 10 -25 0 -29 38 -36 69 -12 21 15 26 27 26 61 0
25 4 41 12 41 17 0 42 40 36 57 -3 7 -10 12 -17 10 -16 -5 -60 39 -54 55 3 8
0 22 -8 33 -17 23 -18 52 -1 58 25 9 -5 20 -62 23 -50 2 -60 0 -63 -14z"/>
<path d="M5630 12792 c0 -23 19 -42 41 -42 27 0 28 23 3 42 -28 23 -44 23 -44
0z"/>
<path d="M5302 12782 c-25 -22 -30 -72 -8 -72 8 0 26 10 40 23 25 21 25 23 8
45 -18 23 -18 23 -40 4z"/>
<path d="M5120 12676 c0 -8 7 -16 15 -20 10 -4 15 1 15 14 0 11 -7 20 -15 20
-8 0 -15 -6 -15 -14z"/>
<path d="M5440 12673 c-14 -2 -38 -10 -55 -18 -56 -25 -83 -28 -101 -11 -19
20 -23 17 -30 -18 -12 -69 -46 -120 -74 -111 -13 4 -19 -2 -24 -26 -10 -50 -8
-57 29 -98 19 -21 35 -42 35 -45 0 -14 -25 -33 -38 -28 -7 2 -21 -2 -30 -9
-33 -26 -59 -37 -71 -29 -9 5 -10 9 -2 14 7 4 8 18 4 34 -4 15 -6 36 -5 47 1
15 -3 13 -18 -10 -21 -32 -27 -75 -10 -75 21 0 9 -38 -20 -60 -35 -26 -38 -40
-11 -40 45 0 79 -39 65 -75 -7 -16 -44 -20 -59 -6 -6 5 -20 12 -32 16 -30 8
-31 -16 -3 -68 24 -44 25 -63 6 -74 -8 -4 -16 -12 -18 -18 -5 -15 -26 -15 -39
1 -17 21 -73 17 -104 -7 -27 -22 -29 -41 -10 -91 4 -11 0 -20 -14 -27 -16 -9
-31 -5 -78 19 -32 16 -65 32 -73 35 -8 3 -35 20 -60 38 -36 26 -46 39 -48 67
-2 19 -10 40 -18 46 -8 6 -14 16 -14 21 0 5 -11 19 -25 31 -14 13 -23 26 -21
31 3 5 -1 14 -9 21 -9 7 -15 29 -15 51 0 20 -7 44 -15 52 -8 8 -13 16 -12 18
2 2 -7 14 -20 26 -19 18 -23 19 -23 6 0 -11 -6 -9 -20 10 -11 14 -20 30 -20
36 0 6 -7 11 -15 11 -8 0 -15 5 -15 10 0 6 5 10 10 10 6 0 10 6 10 14 0 8 6
16 14 19 10 4 12 15 5 49 -4 24 -8 46 -9 51 0 10 -12 9 -30 -3 -13 -9 -13 -11
0 -20 10 -6 11 -10 3 -10 -7 0 -10 -7 -7 -15 4 -8 -1 -17 -10 -21 -14 -5 -14
-9 5 -25 l22 -19 -26 0 c-15 0 -27 4 -27 9 0 6 -10 8 -22 6 -12 -3 -25 0 -29
6 -4 7 -12 8 -18 5 -6 -4 -9 -10 -7 -14 2 -4 -16 -7 -40 -7 -24 0 -44 3 -44 8
0 4 -5 5 -12 1 -8 -5 -9 0 -5 15 3 12 0 27 -6 34 -7 6 -14 21 -15 32 -2 11
-10 24 -18 28 -8 4 -14 15 -14 22 0 11 -12 15 -40 15 l-41 0 21 -22 c11 -12
20 -25 20 -30 0 -4 11 -10 25 -14 14 -3 22 -10 19 -15 -3 -5 0 -9 5 -9 6 0 11
-7 11 -16 0 -8 -4 -13 -9 -10 -5 3 -8 -18 -7 -48 0 -30 4 -52 9 -49 4 2 7 -1
7 -7 0 -6 4 -9 9 -6 13 8 42 -4 35 -15 -3 -5 0 -9 5 -9 6 0 11 -4 11 -10 0 -5
-9 -10 -20 -10 -13 0 -20 -7 -20 -20 0 -17 13 -27 23 -17 5 4 44 -38 51 -57 4
-12 13 -17 26 -13 11 3 20 1 20 -5 0 -5 5 -6 10 -3 6 3 15 3 21 -1 8 -4 7 -9
-2 -15 -12 -7 -12 -9 0 -9 11 0 11 -3 1 -15 -10 -12 -10 -15 1 -15 31 0 -11
-22 -47 -25 -34 -2 -64 -24 -64 -47 0 -8 16 -12 33 -9 5 1 5 -3 2 -9 -4 -6 0
-19 8 -28 8 -9 20 -32 28 -50 10 -23 19 -32 32 -28 9 2 17 0 17 -6 0 -5 7 -16
15 -25 18 -18 7 -36 -35 -58 -26 -14 -27 -15 -22 -94 3 -59 1 -81 -7 -81 -8 0
-5 -11 8 -28 18 -26 35 -106 33 -157 -1 -11 6 -30 14 -43 9 -13 13 -26 10 -30
-3 -3 -6 0 -6 6 0 7 -5 12 -12 12 -6 0 -8 -3 -5 -6 3 -4 2 -15 -4 -26 -10 -18
-9 -18 11 -8 12 6 26 9 33 6 9 -3 8 -5 -1 -5 -19 -1 -48 -31 -30 -31 8 0 9 -3
3 -8 -14 -10 -17 -32 -5 -32 5 0 10 5 10 10 0 6 5 10 10 10 11 0 -8 -40 -25
-52 -6 -5 -3 -8 6 -8 10 0 17 -9 18 -25 1 -14 3 -36 4 -50 1 -14 5 -25 8 -25
11 0 20 -31 13 -42 -4 -7 -9 -6 -14 2 -4 7 -8 -48 -7 -121 0 -74 -1 -206 -3
-294 -3 -211 -3 -208 20 -233 16 -17 20 -35 20 -85 0 -35 -4 -77 -9 -93 -5
-16 -14 -49 -22 -74 -7 -25 -16 -49 -21 -54 -4 -6 -8 -22 -8 -37 0 -15 -4 -31
-10 -34 -5 -3 -10 -17 -10 -31 0 -13 -4 -24 -10 -24 -5 0 -10 -13 -10 -28 0
-15 -4 -32 -9 -38 -4 -5 -14 -38 -21 -74 -18 -96 -20 -102 -36 -96 -15 6 -20
-9 -5 -18 11 -7 12 -57 1 -71 -11 -15 -35 -88 -32 -99 2 -5 -1 -12 -6 -15 -6
-3 -11 -19 -13 -36 -2 -16 -7 -35 -11 -40 -10 -15 -19 -61 -24 -120 -3 -27 -8
-52 -12 -55 -5 -3 -8 -15 -9 -27 0 -13 -1 -37 -2 -54 -1 -20 -5 -28 -13 -23
-8 5 -9 0 -5 -16 3 -13 2 -29 -3 -35 -6 -7 -6 -24 -1 -43 7 -22 6 -34 -3 -41
-7 -6 -13 -34 -13 -62 -1 -28 -6 -56 -12 -62 -14 -14 -15 -50 -1 -42 6 3 10 2
10 -4 0 -5 -4 -12 -8 -15 -5 -3 -9 -35 -10 -72 -1 -37 -6 -72 -12 -78 -5 -5
-10 -23 -10 -38 0 -15 -5 -28 -11 -28 -5 0 -7 -5 -4 -10 4 -6 2 -17 -5 -25 -6
-7 -9 -31 -6 -53 2 -22 2 -43 -1 -46 -7 -6 -11 -71 -13 -189 -1 -40 -5 -65
-10 -62 -6 4 -6 -4 0 -19 5 -14 6 -26 1 -26 -4 0 -14 -18 -21 -40 -7 -22 -17
-40 -22 -40 -4 0 -8 -5 -8 -11 0 -5 5 -7 10 -4 6 3 10 1 10 -4 0 -6 -4 -11
-10 -11 -5 0 -12 -15 -15 -33 -6 -29 -10 -33 -38 -34 -18 0 -56 -3 -85 -7 -36
-5 -58 -4 -67 4 -15 13 -194 23 -211 12 -21 -14 -24 -45 -8 -69 8 -14 14 -25
12 -26 -2 -1 -13 -7 -24 -14 -19 -10 -23 -8 -34 12 -7 13 -10 35 -6 49 5 20 3
26 -9 26 -9 0 -13 -4 -10 -10 4 -6 -5 -10 -19 -10 -14 0 -26 5 -26 11 0 5 -4
7 -10 4 -5 -3 -17 4 -27 16 -43 52 -45 53 -63 29 -10 -13 -19 -19 -22 -14 -3
5 -3 3 -1 -5 5 -19 -29 -42 -43 -30 -7 5 -16 9 -20 8 -5 -2 -27 2 -49 8 -22 6
-62 10 -90 8 -27 -1 -61 2 -75 7 -14 6 -79 12 -145 14 -108 3 -121 5 -134 24
-7 11 -19 20 -25 20 -19 0 -81 34 -124 68 -23 19 -56 34 -83 38 -24 4 -55 12
-69 19 -14 7 -42 16 -63 19 -34 5 -85 35 -126 74 -13 12 -80 11 -156 -3 -34
-6 -105 -79 -105 -108 0 -10 -5 -15 -10 -12 -7 5 -10 -17 -8 -64 l2 -70 -56
-55 c-31 -30 -59 -52 -61 -49 -15 14 -17 -64 -3 -111 9 -30 17 -72 19 -93 1
-21 6 -44 11 -52 5 -8 3 -16 -5 -22 -8 -5 -9 -9 -4 -9 6 0 11 -12 12 -26 0
-15 5 -29 11 -33 20 -13 61 -110 72 -170 6 -35 16 -75 22 -89 12 -30 15 -38
22 -69 10 -48 32 -78 61 -86 17 -5 53 -16 80 -24 28 -9 72 -19 98 -23 42 -6
50 -4 59 14 6 11 17 27 25 34 7 7 14 20 14 28 3 27 4 32 11 39 18 18 48 -9 67
-60 21 -54 21 -65 25 -333 1 -47 5 -82 11 -82 6 0 3 -5 -5 -10 -13 -9 -13 -10
0 -10 13 0 13 -1 0 -10 -10 -6 -11 -10 -3 -10 15 0 13 -21 -2 -32 -6 -5 -6 -8
2 -8 6 0 10 -13 9 -30 -1 -17 1 -36 6 -43 5 -8 8 -4 8 11 0 12 -1 23 -2 25 -1
1 4 12 11 25 6 12 8 22 3 22 -4 0 -7 15 -5 33 4 32 9 184 12 310 1 53 5 71 22
88 l20 20 20 -22 c10 -12 19 -29 19 -37 0 -7 6 -28 14 -45 8 -18 16 -42 18
-54 2 -16 7 -20 16 -14 11 7 12 21 4 75 -11 70 -4 109 21 119 24 9 37 -8 42
-57 3 -26 9 -55 14 -63 7 -14 12 -12 32 13 47 56 82 84 105 84 13 0 24 -5 24
-11 0 -5 4 -8 9 -5 5 4 12 0 14 -6 3 -7 6 -1 6 15 1 15 5 27 11 27 5 0 7 6 5
13 -7 20 48 90 90 114 l38 21 44 -21 c23 -11 43 -27 43 -34 0 -7 1 -16 2 -20
1 -5 -20 -13 -47 -18 -40 -9 -51 -15 -53 -33 -4 -27 33 -82 56 -82 9 0 31 -8
48 -19 26 -16 30 -24 31 -62 0 -24 -4 -47 -11 -51 -7 -5 -5 -8 7 -8 16 0 21
10 18 39 -2 7 2 10 8 6 7 -3 11 2 11 14 0 10 5 21 12 23 9 3 10 16 1 52 -10
44 -9 48 11 56 11 4 28 4 36 0 8 -5 20 -9 25 -9 6 -1 27 -6 48 -12 53 -14 61
-8 32 23 -15 16 -31 25 -40 22 -8 -4 -26 1 -39 9 -17 11 -26 13 -34 5 -8 -8
-14 -3 -23 16 -11 23 -10 29 7 45 23 22 90 36 99 21 15 -25 44 -10 56 30 7 23
18 40 27 40 8 0 39 -25 69 -56 31 -31 60 -53 68 -50 16 6 48 -28 50 -54 2 -21
-28 -33 -63 -23 -22 5 -52 -11 -52 -28 0 -15 64 -49 80 -44 34 11 54 -19 56
-85 1 -39 6 -65 14 -70 18 -11 28 -88 30 -223 0 -16 4 -26 10 -22 6 3 10 -3
10 -15 0 -12 -4 -18 -10 -15 -5 3 -10 1 -10 -4 0 -6 5 -11 10 -11 6 0 10 -11
10 -23 0 -31 28 -87 44 -87 23 0 47 -59 51 -127 7 -106 13 -123 41 -123 13 0
24 5 24 10 0 12 52 1 61 -13 4 -5 3 -25 -2 -46 -10 -39 -2 -141 11 -141 4 0 8
-16 7 -35 -1 -19 -5 -35 -9 -35 -4 0 -8 -5 -8 -11 0 -5 5 -7 10 -4 6 3 11 -4
11 -17 1 -13 3 -33 4 -46 2 -18 0 -20 -11 -11 -10 8 -14 8 -14 1 0 -6 5 -14
11 -18 8 -4 7 -9 -2 -16 -11 -8 -11 -11 -1 -15 8 -3 10 -9 3 -16 -9 -12 -15
-147 -12 -257 1 -40 4 -51 11 -40 7 10 10 -8 11 -60 1 -41 1 -78 0 -82 0 -5 3
-8 7 -8 4 0 8 -8 9 -17 3 -70 7 -109 13 -118 12 -16 27 -118 31 -202 1 -24 6
-43 11 -43 4 0 8 -31 8 -69 0 -39 5 -73 10 -76 6 -3 10 -17 10 -31 0 -13 4
-24 10 -24 5 0 9 -24 9 -53 -2 -55 18 -165 33 -181 4 -6 8 -27 8 -48 0 -21 4
-38 8 -38 4 0 9 -16 10 -36 2 -20 8 -46 13 -57 8 -14 8 -18 0 -13 -6 4 -11 3
-11 -3 0 -5 4 -11 9 -13 5 -1 12 -33 15 -70 3 -38 9 -98 12 -135 4 -38 8 -79
9 -93 2 -25 10 -69 21 -125 3 -16 8 -45 11 -62 3 -18 10 -33 15 -33 6 0 4 -8
-3 -17 -10 -11 -10 -14 -1 -9 12 7 17 -25 13 -79 -2 -17 0 -17 8 -5 6 8 11 12
11 8 0 -3 14 7 31 23 37 34 39 35 72 9 29 -23 31 -67 4 -94 -9 -10 -17 -14
-17 -9 0 4 -4 2 -9 -6 -6 -10 -4 -25 5 -42 18 -37 18 -88 -2 -128 -15 -29 -14
-34 4 -74 11 -23 23 -57 27 -75 4 -17 11 -32 16 -32 14 0 11 -39 -10 -110 -11
-36 -25 -92 -32 -125 -7 -33 -24 -85 -38 -115 -14 -30 -26 -62 -26 -70 -4 -31
-29 -105 -39 -115 -15 -14 -46 -74 -46 -89 0 -7 -10 -23 -21 -35 -17 -18 -19
-25 -9 -31 9 -6 1 -21 -30 -54 -24 -26 -45 -44 -47 -42 -8 8 -43 -34 -43 -52
0 -10 -8 -28 -17 -42 -12 -17 -13 -25 -5 -28 7 -2 12 -16 12 -31 0 -15 5 -32
11 -38 6 -6 10 -36 10 -68 0 -54 17 -94 33 -78 3 4 6 2 6 -4 0 -16 38 -22 50
-8 6 7 18 15 28 17 14 4 18 -3 20 -42 4 -66 -9 -93 -56 -114 -45 -21 -61 -45
-37 -58 10 -6 15 -24 15 -53 0 -32 4 -45 14 -45 15 0 32 35 28 58 -3 12 43 80
62 94 6 4 14 4 18 2 4 -3 8 0 8 5 0 6 9 20 20 31 12 12 20 33 20 55 0 48 22
125 35 125 6 0 33 11 61 24 27 13 50 20 52 15 4 -11 26 10 35 34 4 10 17 17
35 17 33 0 52 -16 52 -44 1 -12 7 -32 14 -45 l13 -24 16 23 c22 31 49 19 75
-34 17 -35 20 -56 15 -98 -8 -75 -4 -158 8 -158 11 0 20 35 14 53 -4 8 -2 18
4 22 6 3 11 17 11 31 0 14 4 22 10 19 6 -3 10 1 10 10 0 9 5 13 10 10 6 -4 10
6 10 24 0 16 5 42 11 58 6 15 11 56 11 90 -1 56 2 65 25 83 29 22 73 27 73 7
0 -7 -7 -23 -16 -35 -15 -22 -15 -25 5 -46 12 -13 26 -38 31 -57 6 -19 10
-178 10 -361 0 -190 4 -328 9 -328 5 0 7 9 4 20 -3 11 0 20 6 20 6 0 11 7 11
15 0 8 -6 15 -12 15 -9 0 -8 4 2 10 13 9 13 10 0 10 -11 0 -12 2 -3 8 8 5 12
66 14 212 1 203 8 246 39 265 6 4 28 -12 50 -35 l40 -42 1 -86 c1 -110 7 -273
13 -377 3 -44 5 -92 6 -107 0 -16 4 -28 10 -28 5 0 7 7 3 16 -3 9 0 20 8 25
10 6 10 9 2 9 -7 0 -12 11 -11 25 1 14 5 25 8 25 4 0 7 27 7 60 2 87 2 92 11
86 5 -3 9 1 9 9 0 8 -4 15 -9 15 -4 0 -8 8 -8 18 0 14 2 15 10 2 8 -13 10 -12
10 3 0 9 -6 17 -12 17 -10 0 -10 2 -1 8 8 5 9 13 3 22 -6 8 -10 22 -10 30 0
13 1 13 10 0 8 -13 13 42 10 115 0 3 6 18 14 34 15 27 18 28 93 29 43 1 85 3
94 4 9 2 41 -20 72 -49 56 -51 57 -53 57 -107 0 -38 4 -56 13 -56 7 0 8 -3 2
-8 -15 -11 -15 -26 1 -40 12 -11 14 -8 14 14 0 32 20 104 33 121 13 18 62 16
77 -1 6 -8 11 -25 9 -38 -1 -13 2 -47 6 -76 6 -43 10 -50 21 -41 8 6 14 17 14
23 0 6 9 22 20 36 11 14 20 35 20 48 0 12 4 22 10 22 5 0 7 6 5 13 -9 24 21
60 70 87 33 18 57 39 70 64 19 36 19 38 2 51 -12 8 -14 15 -8 20 6 3 11 11 11
17 0 6 -7 5 -17 -3 -15 -11 -15 -10 1 8 10 13 22 20 27 17 13 -8 49 34 43 51
-4 8 -1 15 5 15 18 0 -20 60 -39 62 -8 0 -21 1 -27 1 -7 -1 -13 3 -13 7 0 4
-13 13 -30 20 -16 7 -30 17 -30 22 0 5 -4 7 -9 4 -9 -6 -22 44 -14 56 11 19
71 -4 60 -23 -1 -2 0 -3 2 -1 2 1 13 -6 24 -15 11 -10 17 -12 13 -6 -5 9 1 13
19 13 16 0 24 4 20 10 -4 6 -1 17 5 25 10 12 9 16 -6 22 -11 3 -23 13 -27 20
-5 7 -13 11 -19 7 -6 -4 -6 1 1 14 15 28 14 32 -9 32 -18 0 -19 2 -8 21 12 18
9 24 -19 49 -18 17 -33 34 -33 40 0 11 -80 11 -95 -1 -6 -4 -36 -10 -68 -14
l-57 -7 0 29 c0 16 3 33 8 37 4 4 7 13 7 19 0 7 7 12 15 13 36 2 41 5 38 16
-2 6 -12 12 -23 14 -10 1 -21 6 -24 11 -3 5 -21 9 -38 9 -62 2 -65 3 -59 22 9
26 -117 81 -145 64 -22 -14 -24 -9 -9 19 8 14 7 19 -2 19 -7 0 -21 17 -31 38
-29 61 -42 79 -54 75 -15 -5 -34 31 -31 60 1 12 -1 50 -5 85 -6 45 -5 68 4 78
9 11 9 18 -4 32 -43 49 -74 182 -43 182 11 0 36 45 36 66 0 6 7 15 16 18 8 3
13 9 11 13 -6 9 13 27 32 31 7 1 19 8 27 15 7 7 32 28 55 47 23 19 59 52 81
73 36 34 68 48 68 29 0 -4 13 -9 30 -10 26 -2 30 1 35 32 9 45 39 58 119 51
l62 -6 -2 32 c-2 24 3 33 17 36 10 3 19 10 19 15 0 6 8 8 18 6 15 -4 18 -1 14
21 -6 28 -23 46 -59 61 -30 12 -60 77 -46 99 6 9 19 16 29 16 10 0 22 4 26 9
9 13 -2 36 -17 36 -7 0 -15 6 -18 14 -8 20 -85 57 -157 75 -49 12 -68 22 -78
41 -14 25 -12 28 49 87 l64 61 -28 26 c-16 14 -34 26 -41 26 -18 0 -56 38 -56
56 0 8 9 24 20 36 10 12 17 25 14 30 -8 12 -24 10 -22 -3 2 -6 -3 -14 -11 -17
-10 -3 -12 0 -8 12 4 9 2 16 -2 16 -5 0 -12 -6 -14 -12 -3 -8 -6 -6 -6 5 -1
11 7 17 22 18 21 1 21 1 -3 9 -14 4 -19 8 -12 9 15 1 16 33 0 49 -9 9 -7 21 7
51 10 22 21 39 24 37 3 -1 14 5 23 15 12 12 13 19 5 23 -7 2 -4 5 6 5 9 1 17
5 17 10 0 6 9 9 20 8 11 -1 20 -5 20 -10 0 -4 3 -6 8 -3 4 2 16 -2 27 -10 10
-8 13 -14 6 -14 -7 0 -10 -4 -6 -10 3 -5 13 -6 22 -3 13 5 15 2 9 -20 -3 -14
-2 -28 3 -31 12 -8 22 47 10 58 -15 16 -10 35 15 63 14 15 23 30 20 35 -3 4 5
8 17 8 22 0 22 -1 4 -14 -13 -9 -16 -19 -10 -32 8 -18 8 -18 13 1 2 11 10 24
18 28 16 9 19 47 4 47 -5 0 -10 5 -10 11 0 5 5 7 10 4 6 -3 10 1 10 10 0 9 5
13 10 10 6 -3 10 3 10 14 0 11 7 26 15 35 9 8 12 22 8 32 -4 12 -3 15 5 10 12
-7 17 10 14 47 -1 9 2 17 6 17 4 0 9 13 10 30 1 16 6 40 11 53 6 16 6 28 -2
36 -8 8 -7 11 4 11 8 0 15 8 16 18 2 15 13 70 24 112 3 10 -4 14 -21 14 -34
-1 -36 11 -28 169 3 43 -1 113 -7 156 -10 68 -9 80 4 92 38 33 58 108 26 95
-8 -3 -15 -1 -15 5 0 6 -6 9 -14 6 -25 -10 -60 54 -46 83 2 3 3 16 4 30 1 14
4 30 8 35 17 28 8 105 -13 105 -5 0 -9 6 -9 13 0 8 -9 22 -20 32 -11 10 -20
27 -20 37 0 21 22 48 40 48 6 0 8 5 5 10 -3 6 -1 10 5 10 6 0 8 5 5 10 -3 6 1
10 9 10 9 0 16 3 17 8 0 4 2 15 4 24 2 9 -3 35 -11 56 -7 22 -11 49 -9 61 2
11 0 23 -4 25 -6 4 -7 20 -2 82 1 5 9 19 20 30 12 13 20 41 23 77 3 32 9 62
15 68 16 16 62 -39 69 -81 18 -114 52 -167 56 -87 3 71 0 86 -28 145 -15 31
-27 65 -26 75 0 9 -4 17 -10 17 -16 0 -58 52 -60 75 -2 36 2 64 19 105 10 25
6 60 -6 60 -4 0 -8 6 -8 13 -1 6 -4 29 -7 50 -4 29 -1 39 10 44 13 5 13 7 2
14 -8 6 0 9 24 9 27 0 47 -9 78 -35 23 -19 54 -38 69 -42 14 -3 46 -28 71 -53
25 -26 55 -51 67 -54 31 -10 93 -74 111 -116 l15 -35 9 39 c17 79 72 105 83
39 10 -54 25 -113 30 -113 2 0 4 17 3 38 -2 35 6 94 18 135 8 26 31 20 51 -13
9 -16 21 -30 25 -30 4 0 18 -12 32 -27 21 -22 29 -25 48 -17 42 18 62 11 74
-25 10 -30 12 -31 17 -12 6 25 33 28 46 4 5 -10 14 -46 21 -80 12 -59 40 -96
40 -53 0 11 5 20 10 20 6 0 10 -4 10 -9 0 -5 6 -16 13 -23 7 -7 21 -30 30 -50
10 -21 22 -38 26 -38 4 0 13 34 19 76 6 42 15 81 22 88 18 18 40 -21 40 -72 0
-35 5 -48 25 -64 17 -13 25 -29 25 -50 0 -60 14 -17 16 50 2 84 11 131 30 160
17 27 29 28 39 5 4 -10 11 -130 16 -268 5 -137 11 -254 13 -260 3 -5 6 35 7
90 l3 100 6 -90 6 -90 3 95 c2 52 5 106 6 120 2 14 8 78 14 143 6 64 14 124
19 133 8 14 10 13 23 -2 11 -13 15 -69 19 -253 4 -201 7 -236 20 -236 11 0 15
12 16 45 4 100 17 236 25 250 6 11 8 6 9 -17 0 -18 5 -33 11 -33 7 0 9 -16 7
-42 -3 -24 -2 -74 2 -113 6 -63 7 -57 8 54 1 69 6 138 11 155 5 17 14 58 20
91 6 33 16 62 21 63 6 2 8 8 4 13 -3 5 -1 9 5 9 5 0 12 -9 16 -19 11 -36 60
-80 76 -70 27 15 82 -23 91 -62 11 -47 7 -829 -4 -829 -5 0 -4 -9 2 -21 7 -11
9 -26 7 -33 -3 -7 -1 -19 4 -27 7 -11 9 -9 9 8 0 12 6 24 13 26 10 4 10 6 0 6
-15 1 -18 28 -4 33 5 2 11 143 15 313 11 520 15 557 53 563 30 4 37 30 17 60
-14 22 -16 43 -10 136 8 145 18 179 64 216 20 16 46 46 57 67 11 20 33 50 49
65 16 16 27 31 23 34 -3 3 -1 19 5 35 9 27 13 29 59 27 52 -1 54 -3 39 -43 -8
-22 -6 -30 15 -51 16 -16 34 -24 52 -22 17 1 42 -8 61 -22 37 -27 64 -20 70
18 3 16 -3 23 -25 28 -24 6 -56 36 -58 54 -3 24 -19 50 -35 55 -27 9 -21 40
12 60 32 18 37 57 12 90 -12 17 -17 18 -35 7 -11 -7 -25 -9 -32 -5 -18 11 -80
33 -96 33 -23 0 -100 54 -101 71 0 8 -11 25 -25 37 -23 20 -30 44 -26 80 3 20
-19 42 -41 42 -11 0 -45 25 -76 55 -31 30 -65 55 -75 55 -11 0 -33 15 -51 33
-67 71 -120 96 -243 117 -63 11 -76 11 -106 -4 -19 -9 -43 -16 -52 -16 -9 0
-30 -9 -46 -21 -35 -25 -49 -18 -49 25 0 23 9 43 30 64 35 37 36 44 13 68 -17
17 -18 17 -22 -2 -2 -10 -12 -31 -22 -46 -11 -14 -19 -33 -19 -41 0 -9 -5 -17
-11 -19 -6 -2 -13 -21 -16 -43 -12 -112 -113 -155 -258 -110 -65 20 -135 76
-155 126 -7 15 -18 30 -26 33 -29 11 -155 -12 -177 -32 -12 -11 -32 -25 -45
-31 -25 -13 -138 -19 -149 -8 -3 4 -15 7 -25 7 -14 0 -19 -6 -18 -22 5 -53 0
-65 -34 -81 -33 -15 -36 -15 -56 1 -11 9 -26 40 -33 67 -12 45 -17 52 -62 76
-28 14 -58 24 -67 21 -9 -2 -28 7 -42 21 -14 14 -27 22 -30 19 -3 -3 -6 0 -6
6 0 7 5 12 11 12 8 0 8 5 -1 15 -19 22 -28 18 -22 -10 2 -15 0 -25 -7 -25 -6
0 -11 -7 -11 -15 0 -18 -43 -20 -58 -2 -17 21 -51 117 -42 122 4 2 6 23 5 45
-2 22 2 40 7 40 6 0 5 7 -2 15 -8 10 -14 50 -16 103 -1 52 -11 117 -24 162
-32 112 -35 134 -20 125 10 -6 11 -4 5 11 -11 26 -14 104 -4 110 5 2 6 10 4
17 -6 17 -14 61 -24 137 -5 36 -12 74 -15 85 -4 11 0 7 8 -9 l13 -30 9 25 8
24 7 -25 7 -25 1 28 c1 21 -4 27 -19 27 -11 0 -20 5 -20 11 0 6 -7 8 -16 5
-14 -5 -15 -4 -4 9 7 8 9 15 4 15 -5 0 -2 5 6 10 11 7 17 5 22 -8 6 -15 7 -14
7 3 1 17 3 18 12 5 9 -12 10 -11 6 7 -3 13 -1 25 3 28 5 3 7 15 4 28 -3 12 -5
37 -5 56 -1 22 -14 54 -36 87 -23 35 -35 64 -34 86 3 133 -5 269 -17 277 -4 4
-7 20 -8 36 -1 17 -4 65 -7 108 l-5 77 24 -6 c22 -6 24 -3 24 26 0 33 -19 111
-30 120 -3 3 -7 12 -9 20 -13 50 -32 128 -35 148 -3 13 -11 45 -19 70 -8 26
-20 67 -27 92 -7 25 -20 63 -30 85 -9 22 -30 81 -45 130 -15 50 -32 94 -36 99
-5 6 -9 22 -9 37 0 15 -5 40 -10 55 -6 14 -8 42 -4 60 5 27 11 34 30 34 27 0
29 10 25 113 -3 60 15 97 46 97 7 0 13 11 13 26 0 33 16 62 53 97 30 28 57 36
57 16 0 -6 -8 -27 -17 -46 -16 -34 -16 -38 0 -65 22 -39 21 -76 -3 -116 l-21
-33 28 -44 c25 -39 32 -44 64 -45 53 0 68 22 41 60 -12 16 -22 41 -22 56 0 34
36 84 60 84 23 0 27 -6 31 -45 2 -16 7 -33 11 -36 8 -5 11 -41 7 -69 -1 -8 -1
-26 0 -40 1 -22 3 -23 12 -7 5 9 7 22 4 27 -3 6 -1 10 5 10 11 0 7 61 -6 81
-3 5 0 19 7 31 8 15 9 23 1 26 -14 4 5 62 21 62 6 0 8 3 4 6 -3 4 9 31 28 60
19 30 35 65 35 78 0 25 -23 50 -57 60 -17 6 -23 15 -24 39 -2 47 0 58 21 102
26 53 44 75 63 75 23 0 67 -21 67 -32 0 -5 5 -6 11 -3 6 4 10 1 8 -6 -1 -8 -1
-34 0 -59 l2 -45 15 29 c13 22 14 34 5 53 -7 15 -7 22 -1 18 5 -3 10 -1 10 4
0 6 9 20 21 32 13 13 18 26 13 37 -13 32 -16 72 -5 72 6 0 11 7 11 16 0 8 5
12 10 9 6 -3 10 0 10 8 0 8 7 17 15 21 8 3 15 1 15 -4 0 -5 10 -12 23 -16 12
-3 30 -14 39 -23 33 -32 44 -38 61 -35 9 1 17 -4 17 -12 0 -8 5 -14 10 -14 6
0 10 -8 11 -17 0 -11 3 -13 6 -5 2 6 9 10 14 6 5 -3 9 0 9 5 0 6 6 11 14 11
17 0 66 49 66 66 0 7 -17 20 -38 29 -73 32 -80 109 -21 211 54 92 56 106 24
148 -19 25 -28 50 -30 83 -5 86 -36 193 -56 193 -7 0 -50 68 -77 121 -13 25
-62 81 -94 105 -31 24 -145 77 -196 90 -49 13 -184 17 -242 7z m-1222 -364 c6
-31 -52 -58 -74 -35 -23 26 -5 51 37 51 23 0 35 -5 37 -16z m1553 -554 c5 4 9
0 9 -8 0 -10 7 -14 23 -10 14 3 18 2 10 -4 -7 -5 -14 -20 -16 -33 -4 -27 -27
-41 -27 -16 0 8 -8 21 -18 28 -26 18 -31 41 -13 55 13 9 17 9 19 -3 2 -8 8
-12 13 -9z m-222 -365 c18 0 7 -41 -17 -65 -15 -15 -28 -36 -28 -46 -1 -11 -2
-23 -3 -28 -2 -15 -28 -20 -45 -8 -13 10 -14 19 -6 52 17 63 43 113 65 123 16
7 21 5 23 -9 2 -11 7 -19 11 -19z m-1234 -110 c-3 -5 -11 -10 -16 -10 -6 0 -7
5 -4 10 3 6 11 10 16 10 6 0 7 -4 4 -10z m45 -40 c0 -5 -5 -10 -11 -10 -5 0
-7 5 -4 10 3 6 8 10 11 10 2 0 4 -4 4 -10z m-44 -37 c-10 -10 -19 5 -10 18 6
11 8 11 12 0 2 -7 1 -15 -2 -18z m44 -83 c0 -5 -5 -10 -11 -10 -5 0 -7 5 -4
10 3 6 8 10 11 10 2 0 4 -4 4 -10z m45 -70 c-18 -70 -17 -101 3 -123 24 -25
27 -106 5 -114 -9 -4 -10 -10 -2 -25 7 -14 7 -23 -1 -34 -7 -7 -10 -25 -8 -39
3 -14 -1 -33 -8 -42 -7 -10 -14 -29 -14 -42 0 -30 21 -91 32 -91 15 0 9 -97
-7 -110 -12 -10 -15 -9 -15 4 0 10 -4 14 -10 11 -6 -3 -10 4 -10 17 0 13 -5
29 -11 35 -6 6 -10 30 -7 52 2 23 0 41 -4 41 -4 0 -4 16 -1 37 4 22 2 34 -4
30 -6 -4 -9 23 -9 69 1 63 4 78 20 90 12 8 29 11 40 8 18 -6 19 -5 7 10 -7 9
-20 16 -27 16 -8 0 -14 5 -14 11 0 5 -5 7 -12 3 -6 -4 -8 -3 -5 4 4 5 -6 22
-23 35 -17 15 -30 35 -30 48 0 22 0 22 15 3 10 -13 14 -15 15 -5 0 8 -7 22
-16 32 -18 20 -11 39 13 39 9 0 13 6 9 15 -3 8 -1 15 5 15 6 0 9 7 5 15 -7 18
5 20 22 3 18 -18 34 9 21 36 -8 17 -6 16 11 -4 16 -17 20 -31 15 -50z m-12
-657 c-3 -7 -9 -13 -13 -13 -9 0 -20 37 -13 44 9 8 31 -18 26 -31z m344 -905
c-3 -8 -6 -5 -6 6 -1 11 2 17 5 13 3 -3 4 -12 1 -19z m-25 -47 c-9 -5 -11 -18
-7 -37 5 -24 4 -26 -5 -11 -15 23 -3 84 13 68 9 -9 9 -14 -1 -20z m40 -11 c5
-34 -10 -44 -32 -22 -11 12 -12 16 -2 20 6 2 12 10 12 18 0 27 18 14 22 -16z
m-80 -7 c-3 -16 -7 -22 -10 -15 -4 13 4 42 11 42 2 0 2 -12 -1 -27z m18 -54
c0 -5 -4 -9 -8 -9 -5 0 -9 7 -9 15 0 8 4 12 9 9 4 -3 8 -9 8 -15z m156 -4 c12
-12 12 -15 2 -15 -11 0 -11 -2 0 -9 10 -6 13 -27 10 -75 -2 -36 -1 -66 2 -66
3 0 5 -18 3 -40 -1 -22 2 -40 7 -40 4 0 7 -18 6 -40 -2 -34 2 -44 23 -60 20
-15 21 -18 6 -13 -18 6 -19 5 -5 -12 14 -17 13 -18 -2 -12 -12 4 -15 2 -12 -8
3 -8 12 -11 20 -8 8 3 14 0 14 -6 0 -6 -5 -11 -11 -11 -6 0 -1 -8 12 -18 19
-17 23 -30 26 -103 6 -144 6 -281 0 -346 -4 -36 -2 -65 3 -68 6 -4 10 -21 10
-40 0 -19 4 -45 10 -59 5 -15 5 -28 0 -31 -5 -3 -5 -18 0 -34 4 -16 8 -68 8
-115 0 -75 -2 -88 -20 -100 -10 -8 -15 -17 -10 -20 5 -3 7 -16 5 -29 -4 -19 0
-26 18 -30 36 -10 15 -19 -24 -12 -20 4 -38 13 -41 21 -7 18 3 46 14 39 5 -3
6 4 3 16 -4 16 -8 17 -14 7 -7 -10 -9 -9 -9 3 0 16 -47 28 -136 34 -17 2 -42
6 -55 11 -31 10 -35 11 -59 13 -12 1 -17 6 -14 15 3 8 -3 15 -14 18 -25 7 -37
-1 -46 -29 -6 -19 -12 -21 -44 -16 -108 16 -247 7 -261 -16 -7 -10 -25 -14
-60 -12 -16 1 -21 5 -17 16 3 9 0 15 -9 15 -37 0 -19 112 25 150 24 21 52 88
39 96 -7 4 -6 10 0 18 6 7 8 15 5 19 -3 3 2 17 11 31 14 21 15 32 7 56 -9 26
-8 30 6 31 14 0 13 2 -3 9 -11 5 -14 9 -7 9 6 1 12 10 12 21 0 10 14 34 31 51
28 29 42 35 85 38 6 1 11 18 10 39 -1 34 -4 38 -25 36 -29 -3 -68 32 -73 66
-4 35 29 65 81 74 32 5 41 3 35 -5 -5 -9 -2 -10 9 -6 10 3 17 2 17 -4 0 -5 10
-20 21 -32 20 -19 21 -20 15 -3 -4 12 -1 23 6 28 10 6 8 8 -4 8 -10 0 -18 5
-18 11 0 6 7 9 15 5 11 -4 15 2 16 22 1 17 3 20 6 10 6 -25 23 -22 25 5 2 41
3 46 11 53 4 4 7 0 7 -9 0 -9 5 -17 10 -17 6 0 10 -7 10 -16 0 -8 5 -12 10 -9
6 4 8 11 5 16 -4 5 -1 9 4 9 13 0 13 -2 1 -34 -7 -21 -6 -26 5 -26 8 0 15 7
15 15 0 8 6 15 13 15 9 0 8 3 -2 9 -11 7 -9 13 8 30 23 23 28 65 10 77 -8 5
-10 -2 -6 -21 7 -39 -1 -55 -27 -54 -18 1 -19 2 -2 6 15 4 17 12 13 42 -4 32
-2 37 16 38 11 1 25 7 31 14 8 9 6 10 -8 5 -10 -3 -25 -1 -34 6 -12 10 -16 10
-19 1 -6 -16 -43 -17 -43 -2 0 6 7 9 15 5 11 -4 15 1 15 17 0 18 2 19 11 7 9
-12 10 -11 6 8 -3 12 -2 22 3 22 8 0 24 -30 22 -42 -1 -4 7 -6 18 -5 26 2 26
14 0 22 -13 4 -20 14 -19 28 1 17 2 18 6 5 6 -24 19 -23 19 2 0 11 -4 20 -8
20 -17 0 -7 18 12 23 11 3 20 12 20 21 0 9 5 16 11 16 5 0 7 5 4 10 -3 6 -2
10 3 10 4 0 14 22 22 50 13 46 51 96 64 83 3 -4 6 0 6 8 0 13 30 59 38 59 2 0
10 -7 18 -15z m-191 -45 c3 -5 2 -10 -4 -10 -5 0 -13 5 -16 10 -3 6 -2 10 4
10 5 0 13 -4 16 -10z m-44 -233 c-10 -9 -11 -8 -5 6 3 10 9 15 12 12 3 -3 0
-11 -7 -18z m-176 -109 c1 -32 -2 -58 -7 -58 -4 0 -8 9 -8 21 0 11 -5 17 -10
14 -6 -3 -13 1 -16 9 -3 9 -12 16 -18 16 -11 0 -12 10 -7 52 1 3 15 6 33 5 32
-2 32 -2 33 -59z m146 -16 c-6 -11 -7 -22 -4 -26 3 -3 -1 -6 -10 -6 -9 0 -17
5 -17 10 0 6 4 10 9 10 5 0 11 10 14 22 4 12 9 19 12 16 4 -3 2 -15 -4 -26z
m21 -34 c-9 -9 -12 -7 -12 12 0 19 3 21 12 12 9 -9 9 -15 0 -24z m348 17 c0
-8 -2 -15 -4 -15 -2 0 -6 7 -10 15 -3 8 -1 15 4 15 6 0 10 -7 10 -15z m-370
-46 c0 -6 -4 -7 -10 -4 -5 3 -10 11 -10 16 0 6 5 7 10 4 6 -3 10 -11 10 -16z
m-551 -208 c8 -5 9 -11 3 -15 -5 -3 -15 1 -22 9 -14 16 -3 20 19 6z m114 -166
c4 -8 2 -17 -2 -20 -5 -2 -11 4 -14 15 -6 23 8 27 16 5z m-183 -85 c0 -5 -5
-10 -11 -10 -5 0 -7 5 -4 10 3 6 8 10 11 10 2 0 4 -4 4 -10z m-6 -55 c3 -8 0
-14 -7 -12 -7 1 -11 -4 -9 -11 3 -17 -20 -11 -26 6 -2 7 3 12 12 12 9 0 16 5
16 10 0 15 7 12 14 -5z m131 -5 c3 -5 -1 -10 -9 -10 -9 0 -16 5 -16 10 0 6 4
10 9 10 6 0 13 -4 16 -10z m15 -24 c0 -2 -11 -6 -25 -8 -14 -3 -25 -1 -25 3 0
5 11 9 25 9 14 0 25 -2 25 -4z m1237 -188 c-3 -8 -6 -5 -6 6 -1 11 2 17 5 13
3 -3 4 -12 1 -19z m-450 -210 c-3 -8 -6 -5 -6 6 -1 11 2 17 5 13 3 -3 4 -12 1
-19z m166 5 c13 -8 7 -33 -8 -33 -10 0 -12 6 -8 18 6 15 5 15 -11 3 -15 -13
-19 -13 -27 0 -15 24 -10 30 19 23 15 -4 30 -9 35 -11z m46 -14 c-22 -13 -31
-11 -17 5 7 8 17 12 22 9 4 -3 2 -9 -5 -14z m2781 -541 c0 -4 -4 -8 -9 -8 -6
0 -12 4 -15 8 -3 5 1 9 9 9 8 0 15 -4 15 -9z m-2806 -17 c7 -6 16 -8 19 -4 4
3 7 -1 7 -11 0 -9 -4 -15 -9 -12 -5 4 -11 2 -13 -3 -1 -5 -12 -11 -23 -13 -11
-1 -26 -9 -33 -15 -7 -7 -20 -13 -27 -13 -25 0 -37 -41 -41 -136 -3 -68 0 -96
10 -106 7 -8 18 -30 25 -50 7 -20 15 -38 19 -40 10 -5 43 -99 37 -108 -3 -5 5
-6 17 -2 14 3 19 2 14 -6 -4 -7 -2 -12 3 -12 6 0 11 5 11 11 0 5 5 7 10 4 6
-3 10 -1 10 6 0 8 4 8 15 -1 8 -7 15 -19 15 -26 0 -8 3 -14 8 -14 4 0 8 -19
10 -43 4 -55 7 -75 13 -81 3 -3 2 -31 -1 -63 -4 -32 -3 -69 2 -83 11 -29 8
-131 -4 -178 -5 -19 -10 -111 -11 -205 -1 -95 -6 -177 -10 -184 -4 -6 -8 -54
-9 -107 -1 -52 -4 -94 -7 -92 -3 2 -7 -23 -9 -57 -1 -34 -6 -63 -11 -66 -4 -4
-8 -28 -8 -55 0 -30 -4 -51 -12 -54 -9 -3 -9 -7 0 -18 10 -12 8 -16 -10 -21
-16 -4 -19 -8 -10 -14 10 -6 10 -16 2 -43 -8 -26 -8 -36 0 -36 8 0 7 -4 -1
-12 -16 -16 -15 -48 1 -48 8 0 7 -4 -3 -10 -11 -7 -11 -10 -2 -10 8 0 10 -5 5
-12 -4 -7 -9 -22 -10 -33 -2 -10 -7 -22 -12 -25 -4 -3 -7 -13 -5 -23 1 -9 -2
-15 -7 -11 -5 3 -12 -3 -15 -13 -3 -10 -10 -26 -15 -35 -6 -12 -6 -18 1 -18 5
0 9 -11 8 -25 -1 -14 -7 -25 -13 -25 -5 0 -4 -4 4 -9 8 -5 12 -18 8 -30 -3
-12 -1 -21 4 -21 5 0 9 -4 9 -10 0 -5 -7 -10 -15 -10 -8 0 -15 -5 -15 -11 0
-5 4 -8 8 -5 4 3 13 -8 19 -25 7 -17 7 -31 2 -35 -5 -3 -9 -34 -9 -70 0 -41
-4 -64 -11 -64 -8 0 -7 -6 2 -17 11 -13 11 -17 2 -20 -7 -3 -13 -20 -13 -39 0
-19 -4 -34 -10 -34 -5 0 -10 -20 -10 -44 0 -25 -5 -57 -10 -72 -6 -15 -11 -68
-11 -118 -1 -89 -15 -166 -29 -166 -4 0 -10 -8 -14 -17 -3 -10 -9 -24 -12 -32
-4 -9 -2 -11 6 -6 9 6 9 3 1 -13 -6 -11 -20 -24 -31 -27 -11 -3 -20 -12 -20
-19 0 -19 -62 -78 -72 -68 -11 11 -46 104 -64 172 -8 30 -22 75 -31 100 -8 25
-16 52 -17 60 -1 8 -6 38 -10 65 -4 28 -9 61 -12 74 -2 13 -8 29 -14 35 -5 5
-10 20 -10 32 0 12 -6 24 -12 27 -10 3 -10 7 1 20 7 10 9 17 3 17 -6 0 -10 36
-9 96 0 55 -4 98 -10 102 -16 11 -28 72 -38 192 -10 122 -33 257 -45 265 -4 3
-11 -5 -15 -18 -7 -19 -9 -16 -13 18 -3 33 -6 36 -12 20 -8 -17 -8 -16 -7 7 1
15 5 24 9 22 8 -5 12 17 9 43 -1 7 3 22 9 33 6 11 7 26 3 33 -7 10 -10 68 -14
239 0 20 6 47 14 60 25 38 24 64 -3 86 -14 11 -21 24 -17 28 4 5 13 2 18 -6 8
-12 9 -10 4 6 -6 24 18 50 36 38 9 -5 10 -2 6 9 -4 11 -1 17 8 17 8 0 15 5 15
11 0 5 4 8 8 5 4 -2 14 -1 21 4 19 11 6 40 -18 40 -10 0 -31 7 -47 14 -16 9
-34 12 -42 7 -17 -10 -54 17 -45 32 3 5 -3 7 -13 3 -28 -8 -47 8 -42 35 3 20
0 24 -21 26 -14 0 -28 -3 -31 -7 -3 -5 -12 -5 -20 0 -12 8 -12 12 0 37 8 15
20 31 27 36 8 5 9 15 2 35 -6 19 -6 37 0 53 7 18 10 20 10 6 1 -16 3 -17 16
-3 15 14 16 41 3 62 -16 24 -3 182 17 214 3 6 1 10 -4 10 -6 0 -11 7 -11 16 0
12 -6 15 -24 10 -35 -9 -81 34 -71 65 12 37 33 53 50 39 11 -9 15 -9 15 -1 0
16 26 14 43 -4 13 -12 16 -12 22 8 4 12 8 25 10 30 1 4 3 11 4 17 0 5 8 7 16
4 11 -4 13 -2 10 9 -4 8 1 17 10 21 9 3 14 10 10 15 -3 5 -2 12 3 15 5 3 9 35
10 72 2 65 20 114 43 114 14 0 39 26 39 40 0 6 4 9 9 5 5 -3 12 -1 16 5 4 7
14 5 27 -4 17 -13 23 -13 34 -1 8 7 14 17 14 22 0 4 14 19 31 33 17 14 37 30
44 37 7 7 15 9 19 6 3 -4 6 2 6 13 0 14 2 16 9 5 7 -10 12 -8 25 10 19 28 21
61 4 58 -30 -4 -49 2 -42 12 4 7 0 9 -14 5 -11 -4 -23 -2 -27 4 -3 5 -2 10 4
10 6 0 8 6 5 14 -7 18 32 31 50 17 7 -6 16 -8 20 -4 4 4 19 9 34 11 15 2 28 5
30 6 8 8 195 -4 206 -13z m2796 -5 c0 -3 -4 -8 -10 -11 -5 -3 -10 -1 -10 4 0
6 5 11 10 11 6 0 10 -2 10 -4z m-589 -349 c-1 -12 -15 -9 -19 4 -3 6 1 10 8 8
6 -3 11 -8 11 -12z m117 -35 c3 -20 0 -23 -20 -20 -15 2 -24 11 -26 26 -3 20
0 23 20 20 15 -2 24 -11 26 -26z m-3821 -94 c-3 -8 -6 -5 -6 6 -1 11 2 17 5
13 3 -3 4 -12 1 -19z m148 -498 c3 -5 1 -10 -4 -10 -6 0 -11 5 -11 10 0 6 2
10 4 10 3 0 8 -4 11 -10z m1995 -490 c0 -5 -2 -10 -4 -10 -3 0 -8 5 -11 10 -3
6 -1 10 4 10 6 0 11 -4 11 -10z m-1249 -624 c5 -6 9 -25 9 -42 0 -18 4 -35 9
-38 5 -3 12 -32 15 -63 11 -97 18 -138 21 -142 3 -2 -1 -13 -7 -24 -9 -17 -8
-19 6 -14 13 5 16 -1 17 -31 1 -35 3 -51 8 -62 6 -13 12 -48 12 -73 0 -15 4
-25 9 -22 5 3 12 -5 16 -17 10 -32 11 -149 2 -154 -5 -3 -8 -10 -8 -15 0 -6 5
-7 12 -3 8 5 9 2 5 -9 -3 -9 0 -23 8 -31 8 -8 15 -23 15 -33 0 -11 5 -24 11
-30 16 -16 1 -53 -22 -53 -25 0 -94 72 -96 100 -1 11 -9 35 -17 52 -9 17 -16
38 -17 47 0 9 -3 11 -5 4 -3 -6 2 -33 11 -58 8 -26 17 -66 20 -90 3 -35 0 -44
-14 -48 -19 -5 -53 15 -49 29 1 5 -3 19 -10 30 -6 12 -14 39 -18 61 -6 42 -19
47 -61 25 -19 -11 -24 -9 -33 8 -7 13 -8 39 -4 66 6 42 8 45 30 40 22 -6 24
-3 24 32 0 21 5 43 10 48 8 8 7 20 -1 40 -28 69 -31 74 -50 64 -25 -14 -32
-12 -26 4 8 19 -3 28 -19 15 -11 -9 -11 -4 -4 23 12 41 12 41 0 33 -6 -4 -10
5 -9 22 1 17 3 21 6 11 5 -21 23 -24 24 -5 1 20 19 -32 21 -62 1 -20 6 -27 16
-24 9 4 10 9 3 16 -15 15 -14 27 3 27 18 0 28 40 12 46 -11 4 -10 17 1 65 7
33 11 64 8 69 -3 5 0 12 7 16 7 4 10 4 6 -1 -4 -4 -3 -14 3 -22 6 -7 9 -22 6
-34 -3 -12 -3 -18 0 -15 4 3 13 0 21 -7 10 -8 13 -8 9 -1 -4 7 0 14 8 18 8 3
15 11 14 18 0 10 -2 10 -6 1 -2 -7 -10 -13 -17 -13 -7 0 -13 6 -13 13 0 6 -4
25 -8 41 -6 22 -5 27 5 21 10 -6 12 0 8 24 -3 20 0 31 8 31 6 0 14 9 17 20 3
11 0 18 -6 17 -6 -1 -13 9 -15 22 -2 15 0 21 7 17 7 -4 11 2 12 16 1 19 3 18
9 -7 7 -29 8 -29 10 10 2 29 4 33 7 15 3 -14 9 -29 14 -34z m133 -401 c-4 -8
-8 -15 -10 -15 -2 0 -4 7 -4 15 0 8 4 15 10 15 5 0 7 -7 4 -15z m716 -15 c0
-5 -5 -10 -11 -10 -5 0 -7 5 -4 10 3 6 8 10 11 10 2 0 4 -4 4 -10z m-970 -25
c0 -8 -4 -15 -10 -15 -5 0 -7 7 -4 15 4 8 8 15 10 15 2 0 4 -7 4 -15z m945
-125 c-3 -6 1 -7 9 -4 11 4 16 0 16 -11 0 -12 -5 -15 -22 -10 -19 6 -21 5 -10
-6 17 -18 15 -34 -3 -16 -10 10 -12 26 -8 52 5 29 8 34 15 21 5 -9 6 -21 3
-26z m-1147 -46 c-2 -35 0 -64 5 -64 4 0 7 -8 7 -18 0 -10 6 -27 14 -38 25
-35 21 -184 -5 -184 -5 0 -9 6 -9 13 0 6 -5 4 -11 -5 -5 -10 -17 -18 -25 -18
-18 0 -17 90 2 97 9 3 10 11 3 29 -5 14 -5 23 0 20 12 -8 20 65 10 86 -5 9 -9
30 -9 47 0 17 -4 31 -10 31 -5 0 -10 12 -10 26 0 16 4 23 12 18 7 -5 9 0 6 14
-4 15 -2 19 9 15 11 -4 14 -20 11 -69z m86 -121 c0 -16 3 -41 7 -58 6 -19 5
-33 -3 -40 -8 -7 -9 -6 -4 2 4 7 -2 17 -13 23 -19 10 -23 32 -15 78 6 32 30
28 28 -5z m177 -87 c14 -15 11 -29 -6 -22 -8 3 -15 1 -15 -5 0 -6 -7 -3 -17 6
-14 14 -14 18 -2 26 8 4 15 13 15 19 3 22 7 24 11 5 3 -11 9 -24 14 -29z
m-194 -18 c-3 -8 -6 -5 -6 6 -1 11 2 17 5 13 3 -3 4 -12 1 -19z"/>
<path d="M4752 8765 c-11 -12 -10 -15 3 -15 8 0 15 7 15 15 0 18 -2 18 -18 0z"/>
<path d="M4568 8752 c7 -5 10 -16 6 -25 -3 -10 -1 -17 5 -17 6 0 11 -7 11 -17
0 -9 3 -14 6 -10 4 3 3 14 -1 24 -5 10 -7 26 -6 36 1 11 -4 17 -16 17 -13 0
-15 -3 -5 -8z"/>
<path d="M4744 8673 c0 -38 1 -59 4 -48 5 20 5 20 12 0 4 -10 6 8 5 40 -3 73
-3 75 -13 75 -4 0 -8 -30 -8 -67z"/>
<path d="M4442 8705 c0 -16 2 -22 5 -12 2 9 2 23 0 30 -3 6 -5 -1 -5 -18z"/>
<path d="M4566 8683 c-6 -14 -5 -15 5 -6 7 7 10 15 7 18 -3 3 -9 -2 -12 -12z"/>
<path d="M4430 8620 c12 -23 25 -27 17 -6 -3 8 -1 17 6 20 7 2 2 5 -11 5 -20
1 -21 -2 -12 -19z"/>
<path d="M4860 8584 c0 -33 25 -61 34 -38 8 22 8 22 -11 27 -17 4 -17 5 0 6
21 1 22 17 1 25 -23 9 -24 8 -24 -20z"/>
<path d="M4350 8590 c0 -5 5 -10 11 -10 5 0 7 5 4 10 -3 6 -8 10 -11 10 -2 0
-4 -4 -4 -10z"/>
<path d="M4472 8580 c0 -14 2 -19 5 -12 2 6 2 18 0 25 -3 6 -5 1 -5 -13z"/>
<path d="M4743 8583 c0 -7 4 -13 8 -13 4 0 9 6 12 13 3 8 0 14 -7 14 -7 0 -13
-6 -13 -14z"/>
<path d="M4740 8545 c0 -8 4 -15 10 -15 5 0 7 7 4 15 -4 8 -8 15 -10 15 -2 0
-4 -7 -4 -15z"/>
<path d="M4740 8503 c0 -7 5 -13 10 -13 6 0 10 -5 10 -11 0 -5 -4 -7 -10 -4
-5 3 -10 -1 -10 -9 0 -9 6 -16 13 -16 9 0 14 12 14 33 0 21 -5 34 -14 34 -7 0
-13 -6 -13 -14z"/>
<path d="M4435 8433 c2 -10 4 -19 4 -21 1 -5 31 26 31 32 0 3 -9 6 -19 6 -13
0 -18 -6 -16 -17z"/>
<path d="M4744 8415 c0 -12 5 -22 11 -22 5 0 10 10 10 22 0 12 -5 22 -10 22
-6 0 -11 -10 -11 -22z"/>
<path d="M4741 8344 c0 -11 3 -14 6 -6 3 7 2 16 -1 19 -3 4 -6 -2 -5 -13z"/>
<path d="M4756 8287 c3 -10 9 -15 12 -12 3 3 0 11 -7 18 -10 9 -11 8 -5 -6z"/>
<path d="M4920 7969 c0 -5 5 -7 10 -4 6 3 10 8 10 11 0 2 -4 4 -10 4 -5 0 -10
-5 -10 -11z"/>
<path d="M4370 6722 c0 -5 7 -13 16 -16 10 -4 14 -1 12 6 -5 15 -28 23 -28 10z"/>
<path d="M4424 6202 c4 -7 2 -12 -3 -12 -6 0 -11 -4 -11 -10 0 -15 17 -12 23
5 4 8 1 17 -5 21 -7 4 -8 3 -4 -4z"/>
<path d="M5050 5490 c0 -5 5 -10 11 -10 5 0 7 5 4 10 -3 6 -8 10 -11 10 -2 0
-4 -4 -4 -10z"/>
<path d="M4760 5273 c0 -5 7 -17 15 -27 8 -10 12 -22 10 -26 -3 -5 1 -10 9
-13 25 -10 27 24 4 49 -23 24 -38 31 -38 17z"/>
<path d="M4411 4994 c0 -11 3 -14 6 -6 3 7 2 16 -1 19 -3 4 -6 -2 -5 -13z"/>
<path d="M4494 4885 c-8 -20 6 -92 14 -78 4 5 12 12 17 14 6 2 8 16 4 34 -6
27 -7 28 -8 5 -1 -18 -4 -21 -10 -11 -5 7 -6 22 -4 32 6 23 -5 26 -13 4z"/>
<path d="M4440 4823 c0 -16 8 -55 18 -88 l19 -60 -3 75 c-3 103 -2 100 -19
100 -10 0 -15 -10 -15 -27z"/>
<path d="M4678 12523 c-43 -11 -34 -94 13 -122 35 -21 61 -17 102 15 36 29 34
46 -8 83 -34 30 -62 36 -107 24z"/>
<path d="M4556 12391 c-6 -10 22 -37 29 -29 8 7 -5 38 -15 38 -5 0 -11 -4 -14
-9z"/>
<path d="M4350 12340 c0 -5 5 -10 10 -10 6 0 10 5 10 10 0 6 -4 10 -10 10 -5
0 -10 -4 -10 -10z"/>
<path d="M4930 12206 c-6 -6 -5 -16 1 -28 9 -18 11 -18 34 -1 13 10 25 23 25
29 0 13 -47 13 -60 0z"/>
<path d="M5787 11394 c7 -3 10 -11 7 -19 -3 -8 -1 -22 5 -32 9 -15 10 -12 11
20 0 29 -4 37 -17 36 -10 0 -13 -3 -6 -5z"/>
<path d="M6048 11073 c-10 -2 -18 -9 -18 -14 0 -5 -8 -9 -17 -9 -15 -1 -14 -4
5 -20 30 -25 53 -16 50 21 -1 16 -2 28 -3 28 0 -1 -8 -3 -17 -6z"/>
<path d="M5579 10840 c-1 -43 0 -207 1 -222 0 -5 8 -8 18 -7 10 0 12 3 5 6 -7
2 -13 11 -13 18 0 7 6 16 13 18 10 4 10 6 0 6 -7 1 -13 9 -13 19 0 14 2 15 10
2 8 -13 10 -12 10 3 0 9 -4 17 -10 17 -5 0 -10 8 -10 18 0 14 2 15 10 2 7 -11
10 -5 10 23 0 20 -4 37 -10 37 -5 0 -10 8 -10 18 0 14 2 15 10 2 8 -13 10 -12
10 3 0 9 -5 17 -11 17 -6 0 -9 9 -6 19 2 10 1 25 -4 32 -6 9 -9 -2 -10 -31z
m18 -92 c-3 -8 -6 -5 -6 6 -1 11 2 17 5 13 3 -3 4 -12 1 -19z"/>
<path d="M5576 10573 c4 -46 6 -49 13 -23 8 26 4 50 -8 50 -4 0 -6 -12 -5 -27z"/>
<path d="M5576 10505 c4 -8 8 -15 10 -15 2 0 4 7 4 15 0 8 -4 15 -10 15 -5 0
-7 -7 -4 -15z"/>
<path d="M5601 10484 c0 -11 3 -14 6 -6 3 7 2 16 -1 19 -3 4 -6 -2 -5 -13z"/>
<path d="M5576 10465 c4 -8 10 -15 15 -15 5 0 9 -8 9 -17 0 -15 -2 -16 -10 -3
-5 8 -11 12 -15 9 -3 -3 4 -16 15 -29 l20 -23 0 32 c0 18 -6 39 -14 47 -19 18
-27 18 -20 -1z"/>
<path d="M5577 10375 c-2 -16 3 -33 14 -47 16 -17 19 -18 19 -5 0 10 -4 17
-10 17 -5 0 -10 8 -10 18 0 14 2 15 10 2 7 -11 10 -12 10 -2 0 7 -6 20 -14 27
-12 12 -15 11 -19 -10z"/>
<path d="M5580 10290 c0 -17 7 -38 15 -46 13 -14 15 -14 15 0 0 9 -4 16 -10
16 -5 0 -10 8 -10 18 0 14 2 15 10 2 7 -11 10 -12 10 -2 0 7 -7 20 -15 28 -13
14 -15 12 -15 -16z"/>
<path d="M5576 10213 c2 -41 3 -43 14 -43 7 0 7 6 0 20 -6 12 -7 20 -1 20 5 0
12 -6 14 -12 4 -10 6 -10 6 0 1 12 -22 42 -31 42 -2 0 -3 -12 -2 -27z"/>
<path d="M5580 10146 c0 -9 -4 -14 -10 -11 -14 9 -12 -19 2 -33 7 -7 14 -12
18 -12 8 0 6 57 -2 66 -5 4 -8 0 -8 -10z"/>
<path d="M5562 9993 c0 -54 5 -91 12 -95 8 -6 7 -11 -4 -18 -8 -5 -10 -10 -4
-10 6 0 14 -14 18 -32 3 -17 9 -28 13 -24 9 9 14 78 5 72 -4 -3 -7 34 -7 82 1
98 -2 112 -20 112 -10 0 -13 -22 -13 -87z"/>
<path d="M5595 8553 c2 -16 4 -32 5 -38 1 -5 5 0 10 13 10 23 4 52 -10 52 -5
0 -7 -12 -5 -27z"/>
<path d="M5596 8487 c5 -15 44 -41 44 -29 0 8 -36 42 -45 42 -2 0 -2 -6 1 -13z"/>
<path d="M5595 8450 c3 -5 8 -10 11 -10 2 0 4 5 4 10 0 6 -5 10 -11 10 -5 0
-7 -4 -4 -10z"/>
<path d="M5625 8355 c0 -29 4 -45 12 -45 9 0 11 10 6 33 -10 53 -19 59 -18 12z"/>
<path d="M5596 8367 c3 -10 9 -15 12 -12 3 3 0 11 -7 18 -10 9 -11 8 -5 -6z"/>
<path d="M6833 8314 c-2 -7 -2 -18 2 -24 8 -12 45 -13 45 -1 0 5 2 15 5 23 3
8 -4 14 -21 14 -14 1 -28 -4 -31 -12z"/>
<path d="M5628 8270 c2 -17 9 -33 14 -36 6 -4 8 2 3 15 -4 13 -2 21 6 21 9 0
8 4 -1 15 -19 23 -27 18 -22 -15z"/>
<path d="M6706 8284 c-5 -14 -4 -15 9 -4 17 14 19 20 6 20 -5 0 -12 -7 -15
-16z"/>
<path d="M5640 8200 c0 -6 7 -10 15 -10 8 0 15 2 15 4 0 2 -7 6 -15 10 -8 3
-15 1 -15 -4z"/>
<path d="M3063 8187 c0 -8 13 -19 29 -25 31 -11 34 -6 14 21 -16 20 -43 23
-43 4z"/>
<path d="M7500 8193 c-43 -8 -62 -33 -58 -78 2 -32 8 -44 32 -58 34 -22 71
-16 86 13 6 11 12 44 13 72 2 50 1 53 -23 54 -14 1 -36 0 -50 -3z"/>
<path d="M7700 7711 c-23 -6 -23 -8 -6 -14 13 -5 25 -2 35 8 16 16 11 17 -29
6z"/>
<path d="M8106 7609 c-8 -12 -25 -21 -38 -20 -38 1 -67 1 -92 -2 -22 -2 -23
-3 -8 -18 12 -11 19 -13 24 -5 6 8 8 8 8 0 0 -15 48 -24 54 -10 3 6 21 -7 40
-29 20 -22 36 -34 36 -27 0 6 8 12 19 12 21 0 45 23 34 33 -3 4 -2 7 3 7 15 0
12 43 -3 59 -8 7 -17 11 -20 8 -3 -4 -14 -2 -24 3 -14 8 -21 5 -33 -11z"/>
<path d="M8242 7542 c-6 -2 -12 -11 -12 -21 0 -9 -5 -22 -11 -28 -6 -6 -8 -16
-5 -22 9 -15 59 -14 74 1 14 14 16 48 3 48 -5 0 -16 6 -23 13 -7 8 -19 12 -26
9z"/>
<path d="M8153 7444 c-7 -7 -13 -16 -13 -20 0 -11 -50 -54 -63 -54 -7 0 -20
-18 -29 -40 -16 -38 -16 -41 2 -50 14 -8 20 -4 31 18 18 36 48 35 79 -3 35
-42 39 -44 71 -33 44 15 52 31 40 76 -8 27 -19 42 -38 51 -16 8 -35 17 -43 21
-8 4 -17 16 -20 27 -4 17 -7 19 -17 7z"/>
<path d="M2741 7196 c-27 -28 -26 -35 2 -45 42 -16 77 37 38 58 -14 8 -23 5
-40 -13z"/>
<path d="M2193 7202 c-8 -5 -9 -13 -3 -22 11 -17 23 -8 18 14 -2 9 -8 12 -15
8z"/>
<path d="M3252 7093 c2 -10 11 -19 21 -21 24 -5 21 15 -4 28 -18 10 -20 9 -17
-7z"/>
<path d="M2762 6850 c-32 -26 -49 -64 -45 -97 5 -29 8 -31 106 -63 16 -5 27
-5 27 1 0 5 6 9 13 9 8 0 14 6 15 13 1 6 5 28 8 48 5 32 2 40 -32 73 -42 41
-59 44 -92 16z"/>
<path d="M6100 6834 c0 -8 5 -12 10 -9 6 4 8 11 5 16 -9 14 -15 11 -15 -7z"/>
<path d="M6160 6716 c0 -2 7 -6 15 -10 8 -3 15 -1 15 4 0 6 -7 10 -15 10 -8 0
-15 -2 -15 -4z"/>
<path d="M2360 6685 c0 -8 4 -15 10 -15 5 0 7 7 4 15 -4 8 -8 15 -10 15 -2 0
-4 -7 -4 -15z"/>
<path d="M6163 6635 c-1 -25 3 -45 8 -45 5 0 9 3 10 8 0 4 2 15 4 25 2 9 -1
17 -7 17 -5 0 -6 9 -3 20 3 11 2 20 -2 20 -5 0 -10 -20 -10 -45z"/>
<path d="M2359 6623 c4 -34 5 -35 11 -13 7 26 3 50 -9 50 -4 0 -5 -17 -2 -37z"/>
<path d="M5780 6599 c0 -5 4 -8 9 -4 6 3 9 -3 8 -14 0 -11 -4 -18 -8 -15 -4 2
-13 -4 -20 -13 -10 -12 -10 -14 -1 -9 7 4 12 1 12 -8 0 -9 -6 -16 -12 -16 -10
0 -10 -2 0 -9 8 -5 13 -22 11 -42 -4 -58 0 -86 10 -70 7 11 9 11 14 0 3 -8 6
-3 8 11 4 42 4 45 12 58 5 7 4 12 -2 12 -6 0 -11 5 -11 11 0 5 5 7 10 4 6 -3
10 3 10 14 0 12 -5 21 -12 21 -9 0 -9 3 0 12 17 17 15 55 -4 62 -23 9 -34 7
-34 -5z"/>
<path d="M6875 6589 c-4 -6 -5 -12 -2 -15 2 -3 7 2 10 11 7 17 1 20 -8 4z"/>
<path d="M2360 6565 c0 -8 4 -15 10 -15 5 0 7 7 4 15 -4 8 -8 15 -10 15 -2 0
-4 -7 -4 -15z"/>
<path d="M6738 6493 c-4 -41 -4 -196 1 -355 0 -27 4 -48 9 -48 7 0 5 440 -2
447 -2 3 -6 -17 -8 -44z"/>
<path d="M3069 6158 c-8 -32 -6 -68 4 -68 9 0 9 -2 -1 -9 -9 -5 -12 -23 -10
-50 5 -72 23 -51 26 32 2 51 -1 77 -8 77 -6 0 -8 5 -5 10 3 6 4 10 1 10 -3 0
-6 -1 -7 -2z"/>
<path d="M6740 5991 c0 -17 5 -33 10 -36 6 -4 10 8 10 29 0 20 -4 36 -10 36
-5 0 -10 -13 -10 -29z"/>
<path d="M6980 5805 c0 -8 2 -15 4 -15 2 0 6 7 10 15 3 8 1 15 -4 15 -6 0 -10
-7 -10 -15z"/>
<path d="M6980 5616 c0 -22 3 -27 11 -19 8 8 8 16 0 30 -9 16 -10 14 -11 -11z"/>
<path d="M5504 3713 c-9 -10 -26 -18 -38 -19 -12 -1 -29 -5 -39 -9 -10 -4 -24
-2 -32 5 -8 6 -19 9 -25 5 -14 -9 -37 -56 -35 -75 0 -8 -4 -19 -10 -23 -6 -5
0 -7 13 -4 12 3 22 1 22 -4 0 -5 -5 -9 -11 -9 -6 0 -3 -7 5 -16 19 -19 39 -9
31 16 -6 20 32 66 56 68 8 0 26 3 42 6 16 4 39 0 58 -9 24 -13 34 -14 45 -4
21 17 17 33 -13 55 -47 34 -51 35 -69 17z"/>
<path d="M5249 3299 c-7 -15 -6 -23 6 -35 22 -23 47 -10 43 23 -4 32 -34 40
-49 12z"/>
<path d="M5700 2740 c0 -6 7 -10 15 -10 8 0 15 2 15 4 0 2 -7 6 -15 10 -8 3
-15 1 -15 -4z"/>
<path d="M4242 1802 c-14 -13 -19 -23 -12 -27 6 -3 8 -10 6 -14 -3 -4 -1 -13
5 -21 7 -13 9 -13 9 0 0 13 1 13 10 0 8 -12 10 -11 10 8 0 12 6 22 13 22 9 0
9 2 -1 9 -8 4 -13 11 -12 15 5 21 -8 25 -28 8z"/>
<path d="M4257 1688 c-6 -21 4 -48 19 -48 7 0 12 9 11 19 0 11 -5 17 -11 14
-5 -4 -7 1 -3 10 3 10 2 17 -2 17 -5 0 -11 -6 -14 -12z"/>
<path d="M4780 1648 c0 -21 2 -38 4 -38 9 0 12 50 5 62 -6 8 -9 -1 -9 -24z"/>
<path d="M4961 1564 c0 -11 3 -14 6 -6 3 7 2 16 -1 19 -3 4 -6 -2 -5 -13z"/>
<path d="M4961 1524 c0 -11 3 -14 6 -6 3 7 2 16 -1 19 -3 4 -6 -2 -5 -13z"/>
</g>
</svg>
